HIERARCHY
ROOT Hips
{
	OFFSET 0.000000 0.000000 0.000000
	CHANNELS 6 Xposition Yposition Zposition Zrotation Yrotation Xrotation 
	JOINT LHipJoint
	{
		OFFSET 0.000000 0.000000 0.000000
		CHANNELS 3 Zrotation Yrotation Xrotation
		JOINT LeftUpLeg
		{
			OFFSET 1.363060 -1.794630 0.839290
			CHANNELS 3 Zrotation Yrotation Xrotation
			JOINT LeftLeg
			{
				OFFSET 2.448110 -6.726130 0.000000
				CHANNELS 3 Zrotation Yrotation Xrotation
				JOINT LeftFoot
				{
					OFFSET 2.562200 -7.039590 0.000000
					CHANNELS 3 Zrotation Yrotation Xrotation
					JOINT LeftToeBase
					{
						OFFSET 0.157640 -0.433110 2.322550
						CHANNELS 3 Zrotation Yrotation Xrotation
						End Site
						{
							OFFSET 0.000000 0.000000 0.000000
						}
					}
				}
			}
		}
	}
	JOINT RHipJoint
	{
		OFFSET 0.000000 0.000000 0.000000
		CHANNELS 3 Zrotation Yrotation Xrotation
		JOINT RightUpLeg
		{
			OFFSET -1.305520 -1.794630 0.839290
			CHANNELS 3 Zrotation Yrotation Xrotation
			JOINT RightLeg
			{
				OFFSET -2.542530 -6.985550 0.000000
				CHANNELS 3 Zrotation Yrotation Xrotation
				JOINT RightFoot
				{
					OFFSET -2.568260 -7.056230 0.000000
					CHANNELS 3 Zrotation Yrotation Xrotation
					JOINT RightToeBase
					{
						OFFSET -0.164730 -0.452590 2.363150
						CHANNELS 3 Zrotation Yrotation Xrotation
						End Site
						{
							OFFSET 0.000000 0.000000 0.000000
						}
					}
				}
			}
		}
	}
}
MOTION
Frames: 11
Frame Time: 0.008333
2.068107 16.624279 -2.607424 28.872695 83.354310 36.999542 -12.768790 6.141591 -0.369702 -2.851456 19.051796 -2.215704 -0.654670 2.515030 39.031289 0.604469 -12.352179 22.370929 -5.999800 0.000000 -81.453599 7.296902 -1.052383 3.761918 17.211794 3.492823 -36.150341 2.189223 -0.485444 23.194343 -3.173960 -11.628295 -10.502511 -0.437400 0.000000 -3.010501
2.226445 16.567633 -2.577279 25.187721 83.474029 33.247050 -12.867527 6.078369 -0.476469 -1.790172 19.396112 -3.511288 -0.510054 2.675921 42.177150 0.723587 -11.897468 22.998624 -5.992900 -0.000000 -77.608800 7.294138 -1.013504 3.690710 17.718811 3.866216 -36.958769 2.055166 -0.812070 26.440593 -3.218745 -11.568905 -11.510005 179.847200 -0.000000 -0.777200
2.377025 16.510326 -2.546821 20.665908 83.569101 28.642680 -12.910040 5.986432 -0.612540 -0.752959 19.641665 -4.852968 -0.357865 2.864871 45.423247 0.852399 -10.598559 23.338358 -5.539100 -0.000000 -73.254500 7.329548 -0.937984 3.600953 18.271870 4.246437 -37.621579 1.919500 -1.100868 29.499146 -3.277557 -11.582604 -12.591882 -179.848000 -0.000000 -4.026400
2.519962 16.453407 -2.516457 15.040680 83.647277 22.916872 -12.878054 5.862178 -0.774014 0.282842 19.782019 -6.228655 -0.194323 3.080082 48.735833 0.996639 -8.476165 23.340450 -4.638600 -0.000000 -68.520200 7.414358 -0.833860 3.493621 18.901629 4.616097 -38.088967 1.797127 -1.349185 32.283060 -3.354776 -11.677882 -13.761428 -179.516800 0.000000 -6.785599
2.655544 16.397970 -2.486060 8.275753 83.733539 16.027121 -12.755833 5.689956 -0.953639 1.322095 19.792779 -7.618198 -0.010004 3.307291 52.073622 1.163642 -5.627568 22.964454 -3.354800 0.000000 -63.498900 7.557263 -0.724390 3.369115 19.614741 4.936193 -38.340123 1.702785 -1.566058 34.738887 -3.451406 -11.848775 -15.028602 -179.152800 0.000000 -9.124700
2.784346 16.345004 -2.455493 0.451621 83.868128 8.049804 -12.552694 5.443199 -1.141090 2.362386 19.641084 -9.006941 0.207209 3.520203 55.394307 1.360242 -2.228292 22.189273 -1.812700 0.000001 -58.272799 7.744284 -0.650288 3.230922 20.403693 5.169938 -38.381076 1.649929 -1.766926 36.832891 -3.567392 -12.088358 -16.386706 -178.754300 0.000000 -11.109400
2.907243 16.295398 -2.424667 -8.235751 84.079869 -0.819289 -12.318276 5.096772 -1.324498 3.387856 19.298172 -10.387132 0.464025 3.690570 58.651330 1.589237 1.485715 21.021800 -0.179700 0.000000 -52.947000 7.928481 -0.656993 3.081159 21.246231 5.292659 -38.233688 1.645979 -1.965348 38.552836 -3.701162 -12.386640 -17.810065 -178.325900 0.000000 -12.785900
3.025095 16.249817 -2.393270 -17.273527 84.347285 -10.062922 -12.131549 4.654782 -1.490980 4.353916 18.754992 -11.755645 0.751406 3.808762 61.788242 1.846295 5.255656 19.505988 1.369700 0.000001 -47.668200 8.045608 -0.762452 2.914989 22.099667 5.296670 -37.925238 1.685377 -2.161806 39.920152 -3.846787 -12.717870 -19.257749 -177.877300 -0.000001 -14.185200
3.138849 16.208854 -2.360722 -25.852168 84.597852 -18.857837 -12.045373 4.165667 -1.628070 5.206637 18.031953 -13.116488 1.044699 3.895141 64.744646 2.118216 8.836634 17.720717 2.689200 0.000000 -42.638200 8.063478 -0.934337 2.724792 22.917305 5.196577 -37.480065 1.750286 -2.341424 40.983601 -3.993786 -13.042340 -20.678849 -177.423900 -0.000001 -15.331401
3.249482 16.172880 -2.326803 -33.397399 84.767957 -26.609330 -12.051451 3.684537 -1.728419 5.931651 17.166934 -14.480345 1.322432 3.977148 67.478022 2.384250 12.018198 15.759482 3.680000 0.000000 -38.031100 8.001150 -1.123624 2.513195 23.681936 5.032381 -36.922303 1.824477 -2.490532 41.787892 -4.132603 -13.331374 -22.017013 -176.985200 0.000000 -16.247500
3.357951 16.142165 -2.291273 -39.468941 84.828421 -32.858594 -12.108916 3.251172 -1.788950 6.528375 16.196218 -15.856791 1.573622 4.071023 69.960983 2.621213 14.647152 13.710846 4.299800 -0.000000 -33.952000 7.902199 -1.291589 2.289802 24.382078 4.840740 -36.286571 1.897278 -2.603960 42.378703 -4.253918 -13.559731 -23.225799 -176.581600 -0.000000 -16.965000
